# xmcd
#
# Track frame offsets: 
#        200
#        12275
#        29525
#        50675
#        68187
#        85850
#        103202
#        129875
#        150162
#        167750
#        179712
#        193475
#        208737
#        226062
#        241362
#        260387
#        272862
#
# Disc length: 3850 seconds
#
# Revision: 7
# Processed by: cddbd v1.5.2PL0 Copyright (c) Steve Scherf et al.
# Submitted via: ExactAudioCopy v0.95a4
#
DISCID=ef0f0811
DTITLE=Various Artist - Direct Hits From Bullseye Blues
DYEAR=1993
DGENRE=Blues
TTITLE0=Lowell Fulson - Ain't That Sweet?
TTITLE1=The Smokin' Joe Kubek Band - Love to Live the Life
TTITLE2=Charles Brown and Bonnie Raitt - Someone to Love
TTITLE3=The Johnny Nocturne Band - Wailin'
TTITLE4=Byther Smith - I got so much Love
TTITLE5=Eddie Hinton - Poor Ol' Me
TTITLE6=Otis Clay and Clarence Fountain - Send Up My Timber
TTITLE7=Ann Peebles - Full Time Love
TTITLE8=Larry Davis - Help the Poor
TTITLE9=Johnny Talbot - Things I Used To Do
TTITLE10=Luther "Guitar Jr." Johnson - Come Back To Me
TTITLE11=Ron Levy's Wild Kingdom - Defrostin'
TTITLE12=Dalton Reed - Read Me My Rights
TTITLE13=Paul Kelly - The New Rules
TTITLE14=Jimmy McCracklin and Irma Thomas - Tomorrow
TTITLE15=Omar and The Howlers - Shake for Me
TTITLE16=Champion Jack Dupree - Big Leg Emma
EXTD=LABEL =Bullseye Blues - Rounder Records Corp.\nID =BB9901\nUPC 
EXTD==011661-9901-28\nCOPYRIGHT =1993\n---\nBullseye Blues' first co
EXTD=mpilation is a dynamic retrospective of the mostinteresting new b
EXTD=lues label in recent memory. YEAR: 1993
EXTT0=
EXTT1=Smokin' Joe Kubek Band featuring B'Nois King
EXTT2=
EXTT3=Johnny Nocturne Band featuring Brenda Boykin
EXTT4=
EXTT5=
EXTT6=
EXTT7=Ann Peebles featuring Little Jimmy King
EXTT8=
EXTT9=
EXTT10=
EXTT11=Ron Levy's Wild Kingdom featuring Albert Collins
EXTT12=
EXTT13=
EXTT14=
EXTT15=
EXTT16=
PLAYORDER=
